# xmcd
#
# Track frame offsets: 
#        150
#        13129
#        22965
#        35228
#        45169
#        57350
#        67803
#        77104
#        87873
#        98292
#        108553
#        121680
#        132612
#        142115
#        152452
#        161851
#        172605
#        181999
#        192646
#        204004
#        211890
#        221505
#        230854
#        242840
#        253645
#        263555
#        276710
#        287666
#        300656
#        311236
#        321066
#
# Disc length: 4421 seconds
#
# Revision: 1
# Processed by: cddbd v1.5.2PL0 Copyright (c) Steve Scherf et al.
# Submitted via: ExactAudioCopy v1.1
#
DISCID=b811431f
DTITLE=Various Artist - The Bakersfield Sound (Bear Family) - Disc 4
DYEAR=2019
DGENRE=Country
TTITLE0=Buck Owens - King Of Fools (mono)
TTITLE1=The Marksmen - Scratch (mono)
TTITLE2=Jerry Cornelius and The Golden Eagles - It's My Turn To Cry (mon
TTITLE2=o)
TTITLE3=Wayne Morris - I Can't Stop Lovin' (mono)
TTITLE4=Wayne Morris - I Pretend (mono)
TTITLE5=Bill Woods - Truck Drivin' Man (mono)
TTITLE6=Billy Bledsoe - My Last Night In Town (mono)
TTITLE7=Leon Hart - New Home Sweet Home (mono)
TTITLE8=Kenny Hays - Crossing My Fingers (mono)
TTITLE9=Kenny Hays - Foolish Notions (mono)
TTITLE10=Georgia Lynn - On Your Wedding Day (mono)
TTITLE11=Tommy Lewis - Go Where You Wanta Go (mono)
TTITLE12=Vancie Flowers - Private Party (mono)
TTITLE13=Buck Owens - There's Gonna Come A Day (stereo)
TTITLE14=Anita Cross - Why Should I Cry Again (mono)
TTITLE15=Bonnie Owens - Waggin' Tongues (mono)
TTITLE16=Rollie Webber - Painting The Town (mono)
TTITLE17=Johnny Barnett - Second Fiddle (mono)
TTITLE18=Johnny Barnett - Too Old To Hurt (mono)
TTITLE19=Merle Haggard - Skid Row (mono)
TTITLE20=Bill Meyers - Good-Bye Mr. Blues (mono)
TTITLE21=Buck Owens - If You Ain't Lovin', You Ain't Livin' (stereo)
TTITLE22=Bill Bledsoe - Tell Me Why (mono)
TTITLE23=Bob Morris - Put Your Arms Around Him (mono)
TTITLE24=Roy Nichols - Silver Bells (live) (mono)
TTITLE25=Buck Owens - Act Naturally (live) (mono)
TTITLE26=Merle Haggard - Life In Prison (stereo)
TTITLE27=Bobby Durham - My Past Is Present (mono)
TTITLE28=Bobby Durham - Queen Of Snob Hill (stereo)
TTITLE29=Vancie and Rita - Tears In My Beer (mono)
TTITLE30=Rose Stassi - Out Of My Mind (mono)
EXTD=
EXTT0=
EXTT1=
EXTT2=
EXTT3=
EXTT4=
EXTT5=
EXTT6=
EXTT7=
EXTT8=
EXTT9=
EXTT10=
EXTT11=
EXTT12=
EXTT13=
EXTT14=
EXTT15=
EXTT16=
EXTT17=
EXTT18=
EXTT19=
EXTT20=
EXTT21=
EXTT22=
EXTT23=
EXTT24=
EXTT25=
EXTT26=
EXTT27=
EXTT28=
EXTT29=
EXTT30=
PLAYORDER=
